Coordinates
version=1
nRows=8
nColumns=40
inDegrees=yes

Units are S.I. units (second, meters, Newtons, ...)
Angles are in degrees.

endheader
time	pelvis_tilt	pelvis_list	pelvis_rotation	pelvis_tx	pelvis_ty	pelvis_tz	hip_flexion_r	hip_adduction_r	hip_rotation_r	knee_angle_r	knee_angle_r_beta	ankle_angle_r	subtalar_angle_r	mtp_angle_r	hip_flexion_l	hip_adduction_l	hip_rotation_l	knee_angle_l	knee_angle_l_beta	ankle_angle_l	subtalar_angle_l	mtp_angle_l	lumbar_extension	lumbar_bending	lumbar_rotation	arm_flex_r	arm_add_r	arm_rot_r	elbow_flex_r	pro_sup_r	wrist_flex_r	wrist_dev_r	arm_flex_l	arm_add_l	arm_rot_l	elbow_flex_l	pro_sup_l	wrist_flex_l	wrist_dev_l
      1.59500000	     -2.89804336	     -3.25657381	      5.82671031	      0.81204672	      0.91892047	      0.42568058	     -0.17059565	     -1.62583449	    -15.89588475	     27.25273826	     27.25273826	     16.80313910	     -2.73102248	    -11.49760017	     26.68802136	     -3.28521949	     -3.98207463	     27.01411158	     27.01411158	      7.00739591	    -17.14000943	      7.17889288	     -6.68373141	      4.50610732	      3.64437480	     24.83499477	    -16.39392149	    -12.72098329	     70.97872037	     45.13760771	      0.00000000	      0.00000000	     -5.49596227	     -7.32921266	      7.54729574	     22.84712904	     45.05059951	      0.00000000	      0.00000000
      1.60714286	     -2.80974667	     -3.06055416	      5.60934417	      0.81255720	      0.92014181	      0.42245521	      0.95050921	     -2.66490620	    -15.59388622	     30.49100540	     30.49100540	     15.74695548	     -3.31943892	    -12.41613688	     25.88281555	     -2.99742859	     -4.25743580	     26.90146341	     26.90146341	      7.61126039	    -17.07032080	      6.88930179	     -6.73579364	      4.44791382	      3.70588972	     23.44557828	    -16.35317084	    -12.51159962	     69.97706267	     45.16112391	      0.00000000	      0.00000000	     -4.48970898	     -7.27488119	      7.43399092	     23.42647350	     45.09450596	      0.00000000	      0.00000000
      1.61928571	     -2.75587941	     -2.93593460	      5.38501267	      0.81297588	      0.92128195	      0.41932285	      2.14280384	     -3.56652953	    -15.11161295	     33.50468589	     33.50468589	     13.09722816	     -4.99909027	    -16.80848679	     25.07526389	     -2.77984267	     -4.53939482	     26.68195342	     26.68195342	      8.07487092	    -17.03646581	      6.48316065	     -6.66310931	      4.44094036	      3.74266163	     22.34404291	    -16.44164615	    -11.82597920	     67.46936804	     45.23413230	      0.00000000	      0.00000000	     -3.53473591	     -7.19821857	      6.84783696	     24.27336664	     45.24587355	      0.00000000	      0.00000000
      1.63142857	     -2.64086662	     -2.73860713	      5.18776917	      0.81319638	      0.92234128	      0.41623998	      3.57678314	     -4.64481290	    -14.69999653	     37.16977561	     37.16977561	     11.53427391	     -5.72890793	    -17.38829316	     24.21934833	     -2.50435739	     -4.90157637	     26.48979519	     26.48979519	      8.59103806	    -16.85941315	      6.20541411	     -6.81338519	      4.37821380	      3.60725274	     20.94596779	    -16.21084439	    -11.54117309	     66.47380025	     45.25292992	      0.00000000	      0.00000000	     -2.43914466	     -7.21286978	      6.73991615	     24.83478245	     45.28620850	      0.00000000	      0.00000000
      1.64357143	     -2.64012832	     -2.69157608	      4.96959338	      0.81325144	      0.92318298	      0.41343513	      5.20926192	     -5.38964308	    -13.92232479	     40.61369388	     40.61369388	      8.78270498	     -7.72906723	    -20.03316815	     23.46226532	     -2.40169258	     -5.28709797	     26.17107762	     26.17107762	      8.78790772	    -16.69388325	      5.25382380	     -6.71622550	      4.42443287	      3.36080056	     20.11197641	    -16.11532515	    -10.51276743	     63.29230936	     45.33467569	      0.00000000	      0.00000000	     -1.64842661	     -7.23753742	      5.88021443	     26.03930273	     45.46153505	      0.00000000	      0.00000000
      1.65571429	     -2.52385351	     -2.50520660	      4.78797861	      0.81311153	      0.92399984	      0.41060325	      6.88580255	     -6.35335483	    -13.28579183	     44.38261155	     44.38261155	      6.85353399	     -8.65265137	    -19.94018828	     22.62017499	     -2.15522842	     -5.69835639	     25.94038915	     25.94038915	      9.22733452	    -16.40725598	      4.98030941	     -6.91087135	      4.37522827	      3.33588218	     18.60384180	    -15.94430313	    -10.22230519	     62.12689147	     45.35772953	      0.00000000	      0.00000000	     -0.37257921	     -7.32841830	      5.74537090	     26.73573905	     45.50544450	      0.00000000	      0.00000000
      1.66785714	     -2.50581994	     -2.40521904	      4.58315173	      0.81280557	      0.92460712	      0.40808116	      8.76050405	     -7.06620204	    -12.42257715	     48.04242272	     48.04242272	      4.81165701	     -9.90588476	    -19.43572962	     21.90237725	     -2.01834611	     -6.14163618	     25.69287495	     25.69287495	      9.63034267	    -16.06447429	      4.61328461	     -6.95037894	      4.36390629	      3.48556155	     16.98143617	    -15.93948987	     -9.90422620	     60.47583155	     45.39618743	      0.00000000	      0.00000000	      0.92099567	     -7.43695327	      5.57628656	     27.58889789	     45.55324506	      0.00000000	      0.00000000
      1.68000000	     -2.49489307	     -2.44860171	      4.39966796	      0.81232097	      0.92513992	      0.40584064	     10.68996812	     -7.41112832	    -11.38889384	     51.51641764	     51.51641764	      2.90022437	    -11.37114639	    -18.08801764	     21.24987263	     -2.06704855	     -6.59190205	     25.49075240	     25.49075240	      9.98967314	    -15.59633228	      3.99760902	     -6.99180479	      4.47974452	      3.76028848	     15.47842220	    -16.02094130	     -9.48247795	     57.98593219	     45.46090952	      0.00000000	      0.00000000	      2.25389495	     -7.51509287	      5.34873852	     28.73888163	     45.60813923	      0.00000000	      0.00000000
